Coordinates
version=1
nRows=10
nColumns=40
inDegrees=yes

Units are S.I. units (second, meters, Newtons, ...)
Angles are in degrees.

endheader
time	pelvis_tilt	pelvis_list	pelvis_rotation	pelvis_tx	pelvis_ty	pelvis_tz	hip_flexion_r	hip_adduction_r	hip_rotation_r	knee_angle_r	knee_angle_r_beta	ankle_angle_r	subtalar_angle_r	mtp_angle_r	hip_flexion_l	hip_adduction_l	hip_rotation_l	knee_angle_l	knee_angle_l_beta	ankle_angle_l	subtalar_angle_l	mtp_angle_l	lumbar_extension	lumbar_bending	lumbar_rotation	arm_flex_r	arm_add_r	arm_rot_r	elbow_flex_r	pro_sup_r	wrist_flex_r	wrist_dev_r	arm_flex_l	arm_add_l	arm_rot_l	elbow_flex_l	pro_sup_l	wrist_flex_l	wrist_dev_l
     11.91500000	     -6.71306815	     -5.64564367	     -8.87328821	      1.04316237	      0.93014656	      0.46236009	     27.53607634	     -1.05526285	     -5.87671404	     39.20626393	     39.20626393	      9.06334433	    -14.60888623	     -0.87710415	     10.12125486	     -5.40197556	     -8.33791905	     24.24503989	     24.24503989	     19.64769401	    -17.55200081	      9.51367917	    -10.58263313	      8.33964802	      2.46883620	    -11.13046101	    -11.50288316	    -22.25005145	     22.73644068	     47.26654470	      0.00000000	      0.00000000	     30.94705391	    -23.30736121	     -8.08474560	     78.63962917	     47.77813551	      0.00000000	      0.00000000
     11.93450000	     -6.79648571	     -5.77224331	     -9.59273154	      1.04248067	      0.93044521	      0.46575596	     27.01874091	     -0.27547636	     -5.92091382	     33.99850396	     33.99850396	      9.03403794	    -11.09862887	     -1.22507673	      9.25330611	     -5.71775529	     -9.04020933	     23.47891761	     23.47891761	     19.71889216	    -17.38609278	      9.46648878	    -10.72441726	      8.47971918	      2.65485463	    -11.78456283	    -11.30717709	    -22.23271893	     22.96710290	     47.24319175	      0.00000000	      0.00000000	     32.00531572	    -23.64831201	     -8.50943591	     79.90611600	     47.83592428	      0.00000000	      0.00000000
     11.95400000	     -6.93972562	     -5.78688316	    -10.26424971	      1.04199111	      0.92997490	      0.46937742	     26.46355194	      0.34343305	     -6.12707306	     28.99144217	     28.99144217	      8.73365911	     -7.20642639	     -1.29133775	      8.46713441	     -5.90954017	     -9.68700424	     22.74904068	     22.74904068	     19.85534513	    -17.25171654	      9.24738810	    -10.70686794	      8.52001531	      2.72701814	    -12.24237335	    -11.08328988	    -22.23925219	     23.58457809	     47.20447553	      0.00000000	      0.00000000	     32.94434925	    -24.03294691	     -9.02990942	     81.26704747	     47.90233495	      0.00000000	      0.00000000
     11.97350000	     -7.04973058	     -5.77863964	    -10.83875800	      1.04180922	      0.92891144	      0.47318832	     25.86374326	      0.92845078	     -6.34015250	     24.49637828	     24.49637828	      8.16810452	     -3.58421879	     -0.71772144	      7.67847198	     -6.06145633	    -10.24034569	     22.10337509	     22.10337509	     20.10027874	    -17.13472930	      8.97244340	    -10.67033087	      8.54068535	      2.71265789	    -12.47307529	    -10.91359867	    -22.25361465	     24.24932187	     47.16730290	      0.00000000	      0.00000000	     33.75275625	    -24.36623227	     -9.47698151	     82.43282965	     47.96187729	      0.00000000	      0.00000000
     11.99300000	     -7.07587874	     -5.57868586	    -11.37320531	      1.04201818	      0.92726933	      0.47707943	     25.48769485	      1.11637133	     -7.03041284	     21.20522691	     21.20522691	      8.01896165	      0.70722886	      0.64640101	      6.79486669	     -5.98718317	    -10.87206378	     21.41622662	     21.41622662	     20.09142251	    -17.04318097	      7.78158519	    -10.68342615	      8.37469521	      2.44484138	    -12.93507699	    -10.75564591	    -22.08371857	     26.73139723	     47.01269987	      0.00000000	      0.00000000	     34.02597606	    -24.77748605	    -10.75026212	     84.59878265	     48.10191443	      0.00000000	      0.00000000
     12.01250000	     -7.05413814	     -5.51704071	    -11.84407181	      1.04255777	      0.92549135	      0.48138341	     25.15908033	      1.52769159	     -7.34753468	     18.79839264	     18.79839264	      7.85745194	      3.62093832	      2.69039005	      5.87057053	     -6.07574961	    -11.43099540	     20.85563576	     20.85563576	     20.25717371	    -16.90944121	      6.80552262	    -10.64970733	      8.33943393	      2.35931831	    -13.01131165	    -10.74739221	    -21.38967826	     28.27885861	     46.85905879	      0.00000000	      0.00000000	     34.56556268	    -24.99878751	    -11.50519071	     85.79493165	     48.19623508	      0.00000000	      0.00000000
     12.03200000	     -7.07761406	     -5.41451320	    -12.24455727	      1.04332439	      0.92357255	      0.48586481	     25.02200567	      1.91696430	     -7.37976989	     17.24731739	     17.24731739	      7.17927025	      5.18484645	      3.23548194	      5.02953986	     -6.11794675	    -11.87603920	     20.36584450	     20.36584450	     20.73649351	    -16.71404301	      6.60308379	    -10.55614596	      8.32374211	      2.46700983	    -12.55325108	    -10.74130098	    -21.27359743	     28.65649579	     46.83259586	      0.00000000	      0.00000000	     35.21750851	    -25.05496077	    -11.72890027	     86.34489212	     48.22825878	      0.00000000	      0.00000000
     12.05150000	     -7.03400368	     -5.32862834	    -12.58327786	      1.04450594	      0.92173753	      0.49059717	     25.00157174	      2.21951640	     -7.48315807	     16.71761602	     16.71761602	      6.65501824	      6.32421567	      3.29797554	      4.13271792	     -6.19148773	    -12.34070354	     19.95457757	     19.95457757	     21.17050280	    -16.45048279	      6.33230563	    -10.46112760	      8.30060461	      2.51283001	    -11.96607967	    -10.77685001	    -21.21564117	     29.19978424	     46.80452497	      0.00000000	      0.00000000	     35.67485727	    -24.99233992	    -12.16440036	     86.97169802	     48.27358338	      0.00000000	      0.00000000
     12.07100000	     -6.99902193	     -5.29496998	    -12.83241406	      1.04603127	      0.91998799	      0.49552750	     25.07061928	      2.51159583	     -7.61298807	     16.92129243	     16.92129243	      5.98100979	      6.76828042	      1.89695631	      3.31072507	     -6.37789435	    -12.85522921	     19.70676776	     19.70676776	     21.47368732	    -16.11400191	      5.66251306	    -10.33790983	      8.40404566	      2.25742176	    -11.26161726	    -10.90511336	    -21.16588350	     30.33215260	     46.74094385	      0.00000000	      0.00000000	     35.43871478	    -24.75275741	    -13.65606586	     88.14696791	     48.39671527	      0.00000000	      0.00000000
     12.09050000	     -7.04496424	     -5.33193962	    -13.03893320	      1.04777376	      0.91859985	      0.50071710	     25.13978720	      2.89255166	     -7.54302442	     17.47541933	     17.47541933	      5.72714965	      6.71325985	      1.71938445	      2.64578844	     -6.64096959	    -13.07473724	     19.60989680	     19.60989680	     21.74427700	    -16.21317799	      5.61629360	    -10.08344731	      8.57784672	      2.39346153	    -10.39713464	    -11.04495729	    -21.14293142	     30.67142646	     46.73137327	      0.00000000	      0.00000000	     35.53417079	    -24.51273218	    -13.63317519	     88.23829195	     48.39775338	      0.00000000	      0.00000000
